<?xml version="1.0" encoding="UTF-8" standalone="no"?>
<!-- Created with Inkscape (http://www.inkscape.org/) -->

<svg
   xmlns:dc="http://purl.org/dc/elements/1.1/"
   xmlns:cc="http://creativecommons.org/ns#"
   xmlns:rdf="http://www.w3.org/1999/02/22-rdf-syntax-ns#"
   xmlns:svg="http://www.w3.org/2000/svg"
   xmlns="http://www.w3.org/2000/svg"
   xmlns:sodipodi="http://sodipodi.sourceforge.net/DTD/sodipodi-0.dtd"
   xmlns:inkscape="http://www.inkscape.org/namespaces/inkscape"
   width="64"
   height="64"
   id="svg3841"
   version="1.1"
   inkscape:version="0.48.4 r9939"
   sodipodi:docname="New document 5">
  <defs
     id="defs3843" />
  <sodipodi:namedview
     id="base"
     pagecolor="#ffffff"
     bordercolor="#666666"
     borderopacity="1.0"
     inkscape:pageopacity="0.0"
     inkscape:pageshadow="2"
     inkscape:zoom="3.959798"
     inkscape:cx="-1.3168406"
     inkscape:cy="98.643897"
     inkscape:document-units="px"
     inkscape:current-layer="layer1"
     showgrid="false"
     inkscape:window-width="1680"
     inkscape:window-height="987"
     inkscape:window-x="-8"
     inkscape:window-y="-8"
     inkscape:window-maximized="1" />
  <metadata
     id="metadata3846">
    <rdf:RDF>
      <cc:Work
         rdf:about="">
        <dc:format>image/svg+xml</dc:format>
        <dc:type
           rdf:resource="http://purl.org/dc/dcmitype/StillImage" />
        <dc:title></dc:title>
      </cc:Work>
    </rdf:RDF>
  </metadata>
  <g
     inkscape:label="Layer 1"
     inkscape:groupmode="layer"
     id="layer1"
     transform="translate(0,-988.36217)">
    <path
       style="fill:#ea3556;fill-opacity:1;stroke:none"
       d="m 71.419815,925.98717 c -17.678478,0 -32.013565,14.32901 -32.013565,32 0,17.67099 14.335087,32 32.013565,32 17.678478,0 31.986435,-14.32901 31.986435,-32 0,-17.67099 -14.307957,-32 -31.986435,-32 z m 1.573548,5.5322 c 3.208769,6e-5 6.155575,0.4792 8.844426,1.41017 2.688787,0.93107 5.130736,2.40282 7.298007,4.39322 l -1.92624,3.6339 c -0.318649,0.47869 -0.687741,0.86165 -1.058075,1.11187 -0.370404,0.2503 -0.867897,0.35258 -1.492158,0.35254 -0.659906,4e-5 -1.279338,-0.20937 -1.92624,-0.65085 -0.646971,-0.44139 -1.420153,-0.89549 -2.278931,-1.35593 -0.858836,-0.46036 -1.877798,-0.87165 -3.065706,-1.24746 -1.187959,-0.37571 -2.617497,-0.56945 -4.286562,-0.56949 -1.570453,4e-5 -2.969909,0.18794 -4.178042,0.56949 -1.20817,0.38165 -2.209623,0.89266 -2.984315,1.51865 -0.774717,0.62607 -1.333625,1.35842 -1.736329,2.22372 -0.402729,0.8654 -0.624006,1.8333 -0.623993,2.84746 -1.3e-5,1.26816 0.343564,2.31619 1.030945,3.14576 0.687355,0.82964 1.644902,1.55663 2.821535,2.1695 1.176594,0.61292 2.531858,1.12942 4.096651,1.6 1.564748,0.47065 3.201011,0.9926 4.910555,1.51864 1.7095,0.5261 3.386343,1.1046 5.019076,1.76271 1.632669,0.65816 3.11258,1.50434 4.449343,2.54915 1.336692,1.04487 2.411694,2.32738 3.228486,3.85085 0.816717,1.52351 1.220819,3.36374 1.220857,5.53221 -3.8e-5,2.27649 -0.431353,4.42876 -1.302247,6.45423 -0.870976,2.02549 -2.125123,3.81804 -3.79822,5.31526 -1.673167,1.49721 -3.726098,2.66663 -6.158541,3.52542 -2.432501,0.85879 -5.214351,1.27458 -8.301823,1.27458 -3.749007,0 -7.172567,-0.61754 -10.255193,-1.84407 -3.082652,-1.22653 -5.765527,-3.00314 -8.084782,-5.34237 l 2.278932,-3.66102 c 0.291118,-0.35897 0.63675,-0.64682 1.058075,-0.89492 0.421307,-0.24806 0.92645,-0.37965 1.465028,-0.37966 0.756904,10e-6 1.490026,0.26793 2.251802,0.84068 0.761756,0.57278 1.682754,1.19677 2.713014,1.81695 1.030228,0.6202 2.233191,1.15955 3.635438,1.65424 1.402215,0.49469 3.12944,0.75933 5.181857,0.75932 1.688481,10e-6 3.185812,-0.21367 4.476473,-0.62373 1.290604,-0.41005 2.365244,-0.99718 3.255617,-1.73559 0.89031,-0.73838 1.578279,-1.61132 2.061891,-2.65763 0.483554,-1.04629 0.732481,-2.21266 0.732513,-3.49831 -3.2e-5,-1.3717 -0.365881,-2.51132 -1.058075,-3.38983 -0.692246,-0.87847 -1.58135,-1.61372 -2.740144,-2.22372 -1.158845,-0.60996 -2.531903,-1.12341 -4.096651,-1.57289 -1.564793,-0.44944 -3.207523,-0.94767 -4.910556,-1.43728 -1.703076,-0.48957 -3.37183,-1.05543 -5.019076,-1.70848 -1.64727,-0.653 -3.148652,-1.50367 -4.476473,-2.57627 -1.327845,-1.07254 -2.396736,-2.4251 -3.201356,-4.01356 -0.804633,-1.58839 -1.193732,-3.5484 -1.193726,-5.88474 -6e-6,-1.87806 0.396375,-3.66441 1.193726,-5.39661 0.797345,-1.73213 1.957648,-3.29774 3.499788,-4.66441 1.54212,-1.36656 3.471498,-2.44064 5.724459,-3.25424 2.252931,-0.8135 4.811521,-1.2474 7.70496,-1.24746 z"
       id="path3928"
       inkscape:connector-curvature="0"
       inkscape:export-filename="C:\Users\jimmy\favicon.png"
       inkscape:export-xdpi="90"
       inkscape:export-ydpi="90" />
    <g
       transform="matrix(0.73253718,0,0,0.66122891,-216.51403,477.80119)"
       id="g3781">
      <g
         transform="translate(127.91449,471.56785)"
         style="font-size:125px;font-style:normal;font-weight:normal;line-height:125%;letter-spacing:0px;word-spacing:0px;fill:#ffffff;fill-opacity:1;stroke:none;font-family:lato;-inkscape-font-specification:lato"
         id="flowRoot3755" />
    </g>
  </g>
</svg>
