<?xml version="1.0" encoding="UTF-8" standalone="no"?>
<!-- Created with Inkscape (http://www.inkscape.org/) -->

<svg
   xmlns:dc="http://purl.org/dc/elements/1.1/"
   xmlns:cc="http://creativecommons.org/ns#"
   xmlns:rdf="http://www.w3.org/1999/02/22-rdf-syntax-ns#"
   xmlns:svg="http://www.w3.org/2000/svg"
   xmlns="http://www.w3.org/2000/svg"
   xmlns:sodipodi="http://sodipodi.sourceforge.net/DTD/sodipodi-0.dtd"
   xmlns:inkscape="http://www.inkscape.org/namespaces/inkscape"
   width="108"
   height="108"
   id="svg2"
   version="1.1"
   inkscape:version="0.48.4 r9939"
   sodipodi:docname="resizeicon_2.svg">
  <defs
     id="defs4" />
  <sodipodi:namedview
     id="base"
     pagecolor="#ffffff"
     bordercolor="#666666"
     borderopacity="1.0"
     inkscape:pageopacity="0.0"
     inkscape:pageshadow="2"
     inkscape:zoom="3.959798"
     inkscape:cx="87.224586"
     inkscape:cy="47.105004"
     inkscape:document-units="px"
     inkscape:current-layer="g3810"
     showgrid="false"
     inkscape:window-width="1680"
     inkscape:window-height="987"
     inkscape:window-x="-8"
     inkscape:window-y="-8"
     inkscape:window-maximized="1"
     fit-margin-top="0"
     fit-margin-left="0"
     fit-margin-right="0"
     fit-margin-bottom="0" />
  <metadata
     id="metadata7">
    <rdf:RDF>
      <cc:Work
         rdf:about="">
        <dc:format>image/svg+xml</dc:format>
        <dc:type
           rdf:resource="http://purl.org/dc/dcmitype/StillImage" />
        <dc:title></dc:title>
      </cc:Work>
    </rdf:RDF>
  </metadata>
  <g
     inkscape:label="Laag 1"
     inkscape:groupmode="layer"
     id="layer1"
     transform="translate(-100.28571,-424.07647)">
    <g
       id="g2999"
       transform="translate(100.28571,424.08047)">
      <circle
         id="circle2987"
         r="54"
         cy="53.995998"
         cx="54"
         sodipodi:cx="54"
         sodipodi:cy="53.995998"
         sodipodi:rx="54"
         sodipodi:ry="54"
         style="fill:#ac9d93"
         d="M 108,53.995998 C 108,83.819375 83.823376,107.996 54,107.996 24.176624,107.996 0,83.819375 0,53.995998 0,24.172622 24.176624,-0.00400162 54,-0.00400162 c 29.823376,0 54,24.17662362 54,53.99999962 z" />
      <g
         id="g3810">
        <g
           transform="matrix(1.9592444,0,0,1.9592444,-36.6074,-55.416964)"
           style="font-size:48px;font-style:normal;font-weight:normal;line-height:125%;letter-spacing:0px;word-spacing:0px;fill:#f9f9f9;fill-opacity:1;stroke:none;font-family:Sans"
           id="flowRoot3011">
          <path
             id="path3812"
             style="font-variant:normal;font-stretch:normal;font-family:Calibri;-inkscape-font-specification:Calibri"
             d="m 55.070312,69.52025 c -2.1e-5,0.296876 -0.02346,0.546876 -0.07031,0.75 -0.0469,0.203126 -0.109397,0.367188 -0.1875,0.492188 -0.07815,0.125 -0.16799,0.214843 -0.269531,0.269531 -0.101584,0.05469 -0.207052,0.08203 -0.316407,0.08203 l -15.84375,0 c -0.109379,0 -0.210942,-0.02734 -0.304687,-0.08203 -0.09376,-0.05469 -0.183598,-0.144531 -0.269531,-0.269531 -0.08594,-0.125 -0.152348,-0.289062 -0.199219,-0.492188 -0.04688,-0.203124 -0.07032,-0.453124 -0.07031,-0.75 -4e-6,-0.281248 0.02343,-0.523435 0.07031,-0.726562 0.04687,-0.203123 0.105464,-0.371092 0.175781,-0.503907 0.07031,-0.132809 0.156246,-0.234372 0.257813,-0.304687 0.101557,-0.07031 0.214839,-0.105466 0.339843,-0.105469 l 6.328125,0 0,-23.0625 -5.859375,3.492188 c -0.29688,0.156272 -0.535161,0.250022 -0.714843,0.28125 -0.179692,0.03127 -0.324223,-0.0039 -0.433594,-0.105469 -0.109379,-0.10154 -0.183598,-0.269509 -0.222656,-0.503906 -0.03907,-0.234352 -0.0586,-0.531227 -0.05859,-0.890625 -4e-6,-0.265601 0.01172,-0.492163 0.03516,-0.679688 0.02343,-0.187475 0.05859,-0.343725 0.105469,-0.46875 0.04687,-0.124975 0.113277,-0.23435 0.199219,-0.328125 0.08593,-0.09372 0.199214,-0.187474 0.339843,-0.28125 l 6.984375,-4.476562 c 0.06249,-0.04685 0.140614,-0.08591 0.234375,-0.117188 0.09374,-0.03122 0.210926,-0.06247 0.351563,-0.09375 0.140613,-0.03122 0.304675,-0.05075 0.492187,-0.05859 0.187487,-0.0078 0.421862,-0.01169 0.703125,-0.01172 0.374987,3e-5 0.687486,0.01565 0.9375,0.04687 0.249986,0.03128 0.445298,0.07425 0.585938,0.128906 0.14061,0.05472 0.23436,0.12503 0.28125,0.210937 0.04686,0.08597 0.0703,0.175811 0.07031,0.269532 l 0,26.648437 5.484375,0 c 0.124979,3e-6 0.242167,0.03516 0.351563,0.105469 0.109354,0.07031 0.199197,0.171878 0.269531,0.304687 0.07029,0.132815 0.124979,0.300784 0.164063,0.503907 0.03904,0.203127 0.05857,0.445314 0.05859,0.726562 z" />
        </g>
      </g>
    </g>
  </g>
</svg>
