<?xml version="1.0" encoding="UTF-8" standalone="no"?>
<!-- Created with Inkscape (http://www.inkscape.org/) -->

<svg
   xmlns:dc="http://purl.org/dc/elements/1.1/"
   xmlns:cc="http://creativecommons.org/ns#"
   xmlns:rdf="http://www.w3.org/1999/02/22-rdf-syntax-ns#"
   xmlns:svg="http://www.w3.org/2000/svg"
   xmlns="http://www.w3.org/2000/svg"
   xmlns:sodipodi="http://sodipodi.sourceforge.net/DTD/sodipodi-0.dtd"
   xmlns:inkscape="http://www.inkscape.org/namespaces/inkscape"
   width="108"
   height="108"
   id="svg2"
   version="1.1"
   inkscape:version="0.48.4 r9939"
   sodipodi:docname="resizeicon_5.svg">
  <defs
     id="defs4" />
  <sodipodi:namedview
     id="base"
     pagecolor="#ffffff"
     bordercolor="#666666"
     borderopacity="1.0"
     inkscape:pageopacity="0.0"
     inkscape:pageshadow="2"
     inkscape:zoom="3.959798"
     inkscape:cx="87.224586"
     inkscape:cy="47.105004"
     inkscape:document-units="px"
     inkscape:current-layer="g3810"
     showgrid="false"
     inkscape:window-width="1680"
     inkscape:window-height="987"
     inkscape:window-x="-8"
     inkscape:window-y="-8"
     inkscape:window-maximized="1"
     fit-margin-top="0"
     fit-margin-left="0"
     fit-margin-right="0"
     fit-margin-bottom="0" />
  <metadata
     id="metadata7">
    <rdf:RDF>
      <cc:Work
         rdf:about="">
        <dc:format>image/svg+xml</dc:format>
        <dc:type
           rdf:resource="http://purl.org/dc/dcmitype/StillImage" />
        <dc:title></dc:title>
      </cc:Work>
    </rdf:RDF>
  </metadata>
  <g
     inkscape:label="Laag 1"
     inkscape:groupmode="layer"
     id="layer1"
     transform="translate(-100.28571,-424.07647)">
    <g
       id="g2999"
       transform="translate(100.28571,424.08047)">
      <g
         id="g3787">
        <circle
           d="M 108,53.995998 C 108,83.819375 83.823376,107.996 54,107.996 24.176624,107.996 0,83.819375 0,53.995998 0,24.172622 24.176624,-0.00400162 54,-0.00400162 c 29.823376,0 54,24.17662362 54,53.99999962 z"
           style="fill:#ac9d93"
           sodipodi:ry="54"
           sodipodi:rx="54"
           sodipodi:cy="53.995998"
           sodipodi:cx="54"
           cx="54"
           cy="53.995998"
           r="54"
           id="circle2987" />
        <g
           id="g3810">
          <g
             transform="matrix(1.9592444,0,0,1.9592444,-36.6074,-55.416964)"
             style="font-size:48px;font-style:normal;font-weight:normal;line-height:125%;letter-spacing:0px;word-spacing:0px;fill:#f9f9f9;fill-opacity:1;stroke:none;font-family:Sans"
             id="flowRoot3011">
            <path
               id="path3796"
               style="font-variant:normal;font-stretch:normal;font-family:Calibri;-inkscape-font-specification:Calibri"
               d="m 54.859375,61.364 c -2.2e-5,1.625008 -0.273459,3.070319 -0.820313,4.335938 -0.546895,1.265629 -1.320331,2.332034 -2.320312,3.199218 -1.000017,0.867189 -2.191422,1.527345 -3.574219,1.980469 -1.382826,0.453125 -2.91798,0.679687 -4.605469,0.679688 -0.937509,-10e-7 -1.828133,-0.06641 -2.671875,-0.199219 -0.843756,-0.132813 -1.593755,-0.296875 -2.25,-0.492188 C 37.960933,70.672594 37.421871,70.481188 37,70.293688 c -0.421878,-0.187499 -0.691409,-0.335937 -0.808594,-0.445313 -0.11719,-0.109374 -0.199221,-0.210936 -0.246094,-0.304687 -0.04688,-0.09375 -0.08985,-0.20703 -0.128906,-0.339844 -0.03907,-0.132811 -0.06641,-0.300779 -0.08203,-0.503906 -0.01563,-0.203123 -0.02344,-0.44531 -0.02344,-0.726563 -2e-6,-0.265622 0.01172,-0.503903 0.03516,-0.714844 0.02343,-0.210933 0.0664,-0.382808 0.128906,-0.515625 0.0625,-0.132808 0.136716,-0.230464 0.222656,-0.292968 0.08593,-0.0625 0.183591,-0.09375 0.292969,-0.09375 0.156247,4e-6 0.398434,0.09766 0.726562,0.292968 0.328121,0.195317 0.769527,0.406254 1.324219,0.632813 0.554682,0.226566 1.242181,0.441409 2.0625,0.644531 0.820305,0.203128 1.79296,0.30469 2.917969,0.304688 1.046864,2e-6 2.0078,-0.124997 2.882812,-0.375 0.874987,-0.249997 1.628892,-0.640622 2.261719,-1.171875 0.632797,-0.531246 1.12889,-1.199214 1.488281,-2.003907 0.359358,-0.80468 0.539046,-1.785148 0.539063,-2.941406 -1.7e-5,-0.96874 -0.152361,-1.824208 -0.457031,-2.566406 -0.304704,-0.742175 -0.773454,-1.359362 -1.40625,-1.851563 -0.632828,-0.492173 -1.433608,-0.85936 -2.402344,-1.101562 -0.968762,-0.242173 -2.125011,-0.363266 -3.46875,-0.363281 -0.953134,1.5e-5 -1.773445,0.04689 -2.460938,0.140625 -0.687506,0.09376 -1.32813,0.140639 -1.921875,0.140625 -0.437504,1.4e-5 -0.750004,-0.101548 -0.9375,-0.304688 -0.187504,-0.20311 -0.281253,-0.593734 -0.28125,-1.171875 l 0,-12.351562 c -3e-6,-0.515596 0.12109,-0.898408 0.363282,-1.148438 0.242183,-0.24997 0.589839,-0.37497 1.042968,-0.375 l 13.429688,0 c 0.124981,3e-5 0.246075,0.03519 0.363281,0.105469 0.117169,0.07034 0.214825,0.175811 0.292969,0.316406 0.07811,0.140655 0.136699,0.320342 0.175781,0.539063 0.03904,0.218779 0.05857,0.476591 0.05859,0.773437 -2e-5,0.562528 -0.07814,1.000028 -0.234375,1.3125 -0.156269,0.312527 -0.375019,0.468777 -0.65625,0.46875 l -11.320313,0 0,8.507813 c 0.546868,-0.07811 1.105461,-0.124982 1.675782,-0.140625 0.570303,-0.01561 1.230458,-0.02342 1.980468,-0.02344 1.734363,1.8e-5 3.249986,0.20705 4.546875,0.621094 1.296859,0.41408 2.378889,1.000017 3.246094,1.757812 0.867168,0.757828 1.523417,1.675796 1.96875,2.753907 0.445291,1.078137 0.667947,2.273448 0.667969,3.585937 z" />
          </g>
        </g>
      </g>
    </g>
  </g>
</svg>
