<?xml version="1.0" encoding="UTF-8" standalone="no"?>
<!-- Created with Inkscape (http://www.inkscape.org/) -->

<svg
   xmlns:dc="http://purl.org/dc/elements/1.1/"
   xmlns:cc="http://creativecommons.org/ns#"
   xmlns:rdf="http://www.w3.org/1999/02/22-rdf-syntax-ns#"
   xmlns:svg="http://www.w3.org/2000/svg"
   xmlns="http://www.w3.org/2000/svg"
   xmlns:sodipodi="http://sodipodi.sourceforge.net/DTD/sodipodi-0.dtd"
   xmlns:inkscape="http://www.inkscape.org/namespaces/inkscape"
   width="108"
   height="108"
   id="svg2"
   version="1.1"
   inkscape:version="0.48.4 r9939"
   sodipodi:docname="resizeicon_3.svg">
  <defs
     id="defs4" />
  <sodipodi:namedview
     id="base"
     pagecolor="#ffffff"
     bordercolor="#666666"
     borderopacity="1.0"
     inkscape:pageopacity="0.0"
     inkscape:pageshadow="2"
     inkscape:zoom="3.959798"
     inkscape:cx="87.224586"
     inkscape:cy="47.105004"
     inkscape:document-units="px"
     inkscape:current-layer="g3810"
     showgrid="false"
     inkscape:window-width="1680"
     inkscape:window-height="987"
     inkscape:window-x="-8"
     inkscape:window-y="-8"
     inkscape:window-maximized="1"
     fit-margin-top="0"
     fit-margin-left="0"
     fit-margin-right="0"
     fit-margin-bottom="0" />
  <metadata
     id="metadata7">
    <rdf:RDF>
      <cc:Work
         rdf:about="">
        <dc:format>image/svg+xml</dc:format>
        <dc:type
           rdf:resource="http://purl.org/dc/dcmitype/StillImage" />
        <dc:title></dc:title>
      </cc:Work>
    </rdf:RDF>
  </metadata>
  <g
     inkscape:label="Laag 1"
     inkscape:groupmode="layer"
     id="layer1"
     transform="translate(-100.28571,-424.07647)">
    <g
       id="g2999"
       transform="translate(100.28571,424.08047)">
      <circle
         id="circle2987"
         r="54"
         cy="53.995998"
         cx="54"
         sodipodi:cx="54"
         sodipodi:cy="53.995998"
         sodipodi:rx="54"
         sodipodi:ry="54"
         style="fill:#ac9d93"
         d="M 108,53.995998 C 108,83.819375 83.823376,107.996 54,107.996 24.176624,107.996 0,83.819375 0,53.995998 0,24.172622 24.176624,-0.00400162 54,-0.00400162 c 29.823376,0 54,24.17662362 54,53.99999962 z" />
      <g
         id="g3810">
        <g
           transform="matrix(1.9592444,0,0,1.9592444,-36.6074,-55.416964)"
           style="font-size:48px;font-style:normal;font-weight:normal;line-height:125%;letter-spacing:0px;word-spacing:0px;fill:#f9f9f9;fill-opacity:1;stroke:none;font-family:Sans"
           id="flowRoot3011">
          <path
             id="path3808"
             style="font-variant:normal;font-stretch:normal;font-family:Calibri;-inkscape-font-specification:Calibri"
             d="m 55,69.379625 c -2.2e-5,0.281251 -0.01955,0.531251 -0.05859,0.75 -0.03908,0.218751 -0.09377,0.402344 -0.164062,0.550781 -0.07033,0.148438 -0.164084,0.257813 -0.28125,0.328125 -0.117209,0.07031 -0.246115,0.105469 -0.386719,0.105469 l -16.757813,0 c -0.218753,0 -0.410159,-0.02734 -0.574218,-0.08203 -0.164066,-0.05469 -0.304691,-0.144531 -0.421875,-0.269531 -0.117191,-0.125 -0.203128,-0.304687 -0.257813,-0.539063 -0.05469,-0.234374 -0.08203,-0.523436 -0.08203,-0.867187 -3e-6,-0.312498 0.01172,-0.585936 0.03516,-0.820313 0.02343,-0.234372 0.07422,-0.441403 0.152344,-0.621094 0.07812,-0.179684 0.175778,-0.359371 0.292969,-0.539062 0.117184,-0.179684 0.269528,-0.37109 0.457031,-0.574219 l 5.882812,-6.234375 c 1.359365,-1.437488 2.449207,-2.726549 3.269532,-3.867187 0.820299,-1.14061 1.453111,-2.179671 1.898437,-3.117188 0.445298,-0.937482 0.738266,-1.789043 0.878906,-2.554687 0.14061,-0.765605 0.210922,-1.484354 0.210938,-2.15625 -1.6e-5,-0.671853 -0.109391,-1.308571 -0.328125,-1.910157 -0.218774,-0.601538 -0.53518,-1.128882 -0.949228,-1.582032 -0.414076,-0.453099 -0.933607,-0.812473 -1.558594,-1.078125 -0.625012,-0.265598 -1.343761,-0.39841 -2.15625,-0.398437 -0.953134,2.7e-5 -1.808602,0.132839 -2.566406,0.398437 -0.75782,0.265652 -1.421882,0.554714 -1.992187,0.867188 -0.570318,0.312525 -1.04688,0.601587 -1.429688,0.867187 -0.382817,0.26565 -0.667973,0.398462 -0.855469,0.398438 -0.109378,2.4e-5 -0.207034,-0.03123 -0.292968,-0.09375 -0.08594,-0.06248 -0.156254,-0.164038 -0.210938,-0.304688 -0.05469,-0.1406 -0.09766,-0.3281 -0.128906,-0.5625 -0.03125,-0.234349 -0.04688,-0.515599 -0.04687,-0.84375 -3e-6,-0.234348 0.0078,-0.437473 0.02344,-0.609375 0.01562,-0.171848 0.04297,-0.320285 0.08203,-0.445312 0.03906,-0.124973 0.08984,-0.24216 0.152343,-0.351563 0.0625,-0.109347 0.187497,-0.246066 0.375,-0.410156 0.187496,-0.164034 0.511715,-0.38669 0.972657,-0.667969 0.460932,-0.281221 1.039056,-0.558564 1.734375,-0.832031 0.695305,-0.273408 1.460929,-0.503876 2.296875,-0.691406 0.835928,-0.18747 1.714833,-0.28122 2.636718,-0.28125 1.468738,3e-5 2.753892,0.207061 3.855469,0.621093 1.101546,0.414092 2.015608,0.980498 2.742188,1.699219 0.726543,0.718778 1.269512,1.554714 1.628906,2.507813 0.359355,0.953149 0.539042,1.968773 0.539062,3.046875 -2e-5,0.968771 -0.08596,1.933614 -0.257812,2.894531 -0.171895,0.960956 -0.535176,2.000018 -1.089844,3.117187 -0.554706,1.117204 -1.355486,2.35939 -2.402344,3.726563 -1.04689,1.367199 -2.437514,2.941416 -4.171875,4.722656 l -4.804687,5.015625 13.195312,0 c 0.12498,3e-6 0.246073,0.03516 0.363282,0.105469 0.117166,0.07031 0.218728,0.175784 0.304687,0.316406 0.08592,0.140628 0.148416,0.316409 0.1875,0.527344 0.03904,0.21094 0.05857,0.457033 0.05859,0.738281 z" />
        </g>
      </g>
    </g>
  </g>
</svg>
