<?xml version="1.0" encoding="UTF-8" standalone="no"?>
<!-- Created with Inkscape (http://www.inkscape.org/) -->

<svg
   xmlns:dc="http://purl.org/dc/elements/1.1/"
   xmlns:cc="http://creativecommons.org/ns#"
   xmlns:rdf="http://www.w3.org/1999/02/22-rdf-syntax-ns#"
   xmlns:svg="http://www.w3.org/2000/svg"
   xmlns="http://www.w3.org/2000/svg"
   xmlns:sodipodi="http://sodipodi.sourceforge.net/DTD/sodipodi-0.dtd"
   xmlns:inkscape="http://www.inkscape.org/namespaces/inkscape"
   width="108"
   height="108"
   id="svg2"
   version="1.1"
   inkscape:version="0.48.4 r9939"
   sodipodi:docname="resizeicon_4.svg">
  <defs
     id="defs4" />
  <sodipodi:namedview
     id="base"
     pagecolor="#ffffff"
     bordercolor="#666666"
     borderopacity="1.0"
     inkscape:pageopacity="0.0"
     inkscape:pageshadow="2"
     inkscape:zoom="3.959798"
     inkscape:cx="87.224586"
     inkscape:cy="47.105004"
     inkscape:document-units="px"
     inkscape:current-layer="g3810"
     showgrid="false"
     inkscape:window-width="1680"
     inkscape:window-height="987"
     inkscape:window-x="-8"
     inkscape:window-y="-8"
     inkscape:window-maximized="1"
     fit-margin-top="0"
     fit-margin-left="0"
     fit-margin-right="0"
     fit-margin-bottom="0" />
  <metadata
     id="metadata7">
    <rdf:RDF>
      <cc:Work
         rdf:about="">
        <dc:format>image/svg+xml</dc:format>
        <dc:type
           rdf:resource="http://purl.org/dc/dcmitype/StillImage" />
        <dc:title></dc:title>
      </cc:Work>
    </rdf:RDF>
  </metadata>
  <g
     inkscape:label="Laag 1"
     inkscape:groupmode="layer"
     id="layer1"
     transform="translate(-100.28571,-424.07647)">
    <g
       id="g2999"
       transform="translate(100.28571,424.08047)">
      <circle
         id="circle2987"
         r="54"
         cy="53.995998"
         cx="54"
         sodipodi:cx="54"
         sodipodi:cy="53.995998"
         sodipodi:rx="54"
         sodipodi:ry="54"
         style="fill:#ac9d93"
         d="M 108,53.995998 C 108,83.819375 83.823376,107.996 54,107.996 24.176624,107.996 0,83.819375 0,53.995998 0,24.172622 24.176624,-0.00400162 54,-0.00400162 c 29.823376,0 54,24.17662362 54,53.99999962 z" />
      <g
         id="g3810">
        <g
           transform="matrix(1.9592444,0,0,1.9592444,-36.6074,-55.416964)"
           style="font-size:48px;font-style:normal;font-weight:normal;line-height:125%;letter-spacing:0px;word-spacing:0px;fill:#f9f9f9;fill-opacity:1;stroke:none;font-family:Sans"
           id="flowRoot3011">
          <path
             id="path3804"
             style="font-variant:normal;font-stretch:normal;font-family:Calibri;-inkscape-font-specification:Calibri"
             d="m 54.765625,62.442125 c -2.1e-5,1.390632 -0.242209,2.644537 -0.726563,3.761719 -0.484395,1.117191 -1.179707,2.074221 -2.085937,2.871094 -0.906268,0.796876 -2.023454,1.410156 -3.351563,1.839843 -1.328138,0.429688 -2.828137,0.644531 -4.5,0.644532 -1.015634,-10e-7 -1.964852,-0.08203 -2.847656,-0.246094 C 40.371087,71.149156 39.585931,70.953844 38.898437,70.727281 38.210933,70.500719 37.640621,70.266345 37.1875,70.024156 36.734372,69.78197 36.449216,69.606189 36.332031,69.496813 36.214841,69.387439 36.124997,69.278064 36.0625,69.168688 36,69.059315 35.94531,68.926502 35.898437,68.77025 c -0.04688,-0.156248 -0.08203,-0.347654 -0.105468,-0.574219 -0.02344,-0.226559 -0.03516,-0.503903 -0.03516,-0.832031 -2e-6,-0.562496 0.05469,-0.95312 0.164063,-1.171875 0.109372,-0.218745 0.265622,-0.32812 0.46875,-0.328125 0.140622,5e-6 0.417965,0.125005 0.832031,0.375 0.414058,0.250005 0.945308,0.519536 1.59375,0.808594 0.648432,0.289066 1.406243,0.558597 2.273438,0.808594 0.867179,0.250003 1.832021,0.375002 2.894531,0.375 1.031238,2e-6 1.937487,-0.13281 2.71875,-0.398438 0.781236,-0.265621 1.437485,-0.640621 1.96875,-1.125 0.531234,-0.48437 0.929671,-1.058588 1.195312,-1.722656 0.265609,-0.664056 0.398421,-1.386711 0.398438,-2.167969 -1.7e-5,-0.859366 -0.167986,-1.632803 -0.503906,-2.320312 -0.335954,-0.687489 -0.828141,-1.281239 -1.476563,-1.78125 -0.648452,-0.499988 -1.445326,-0.8828 -2.390625,-1.148438 -0.945324,-0.265611 -2.019542,-0.398424 -3.222656,-0.398437 l -2.882813,0 c -0.125006,1.3e-5 -0.246099,-0.02733 -0.363281,-0.08203 -0.117193,-0.05467 -0.218756,-0.144517 -0.304687,-0.269531 -0.08594,-0.124986 -0.156256,-0.289048 -0.210938,-0.492187 -0.05469,-0.203111 -0.08204,-0.468735 -0.08203,-0.796875 -5e-6,-0.29686 0.02343,-0.542953 0.07031,-0.738282 0.04687,-0.195296 0.113276,-0.351546 0.199219,-0.46875 0.08593,-0.11717 0.183588,-0.203108 0.292969,-0.257812 0.109369,-0.05467 0.234369,-0.08201 0.375,-0.08203 l 2.648437,0 c 1.03124,1.7e-5 1.957021,-0.132796 2.777344,-0.398438 0.8203,-0.265607 1.515612,-0.648419 2.085938,-1.148437 0.570298,-0.499981 1.007797,-1.097637 1.3125,-1.792969 0.304672,-0.695292 0.457015,-1.472635 0.457031,-2.332031 -1.6e-5,-0.624977 -0.101578,-1.222633 -0.304688,-1.792969 -0.20314,-0.570288 -0.507827,-1.066381 -0.914062,-1.488281 -0.406264,-0.421849 -0.925795,-0.75388 -1.558594,-0.996094 -0.632825,-0.24216 -1.363293,-0.363254 -2.191406,-0.363281 -0.90626,2.7e-5 -1.73829,0.136746 -2.496094,0.410156 -0.75782,0.273464 -1.4336,0.566432 -2.027344,0.878906 -0.593755,0.312526 -1.085942,0.605494 -1.476562,0.878906 -0.390629,0.273463 -0.664067,0.410181 -0.820313,0.410157 -0.109378,2.4e-5 -0.207034,-0.01951 -0.292968,-0.05859 -0.08594,-0.03904 -0.156254,-0.117163 -0.210938,-0.234375 -0.05469,-0.117162 -0.09375,-0.281225 -0.117187,-0.492188 -0.02344,-0.210911 -0.03516,-0.488255 -0.03516,-0.832031 -3e-6,-0.234348 0.0078,-0.441379 0.02344,-0.621094 0.01562,-0.17966 0.04687,-0.33591 0.09375,-0.46875 0.04687,-0.132785 0.101559,-0.253878 0.164062,-0.363281 0.0625,-0.109347 0.167966,-0.238253 0.316407,-0.386719 0.148433,-0.148409 0.449214,-0.363252 0.902343,-0.644531 0.45312,-0.281221 1.011713,-0.558564 1.675782,-0.832031 0.664055,-0.273408 1.429679,-0.503876 2.296875,-0.691406 0.867178,-0.18747 1.80077,-0.28122 2.800781,-0.28125 1.406237,3e-5 2.640611,0.179718 3.703125,0.539062 1.062484,0.359405 1.949202,0.867217 2.660156,1.523438 0.710919,0.656278 1.242169,1.441433 1.59375,2.355468 0.351543,0.914088 0.527324,1.925806 0.527344,3.035157 -2e-5,0.953147 -0.12502,1.839865 -0.375,2.660156 -0.250019,0.820332 -0.617207,1.546894 -1.101563,2.179687 -0.484393,0.632831 -1.078142,1.171893 -1.78125,1.617188 -0.703141,0.445329 -1.51564,0.753922 -2.4375,0.925781 l 0,0.04687 c 1.04686,0.109391 2.00389,0.371109 2.871094,0.785156 0.86717,0.414077 1.613263,0.933608 2.238281,1.558594 0.62498,0.625013 1.113261,1.355481 1.464844,2.191406 0.351542,0.835948 0.527323,1.730479 0.527344,2.683594 z" />
        </g>
      </g>
    </g>
  </g>
</svg>
